<svg width="363" height="128" viewBox="0 0 363 128" fill="none" xmlns="http://www.w3.org/2000/svg">
<path fill-rule="evenodd" clip-rule="evenodd" d="M41.5028 50.9281C23.7558 45.9855 19.8201 32.0941 20.5926 21.1817C20.89 16.9802 25.0276 14.4733 29.1686 15.2438L45.6951 18.3189C50.1478 19.1474 54.3331 15.9825 57.1298 12.42C70.2933 -4.34823 114.174 0.457637 106.633 58.9568C106.27 61.7713 104.375 64.269 101.599 64.8559C100.217 65.148 98.7611 65.3345 97.305 65.3549C96.7885 65.3472 96.2492 65.3323 95.6928 65.3063C95.5319 65.2939 95.3712 65.2793 95.2111 65.2622L95.2244 65.2819C91.8502 65.0883 87.9183 64.4619 84.5994 62.5785C82.4272 61.3458 80.5225 59.5766 79.2001 57.0209C77.8747 54.4592 77.1017 51.0438 77.3004 46.4732C77.3249 45.9085 76.8871 45.4309 76.3224 45.4063C75.7577 45.3818 75.2801 45.8196 75.2555 46.3843C75.0449 51.2291 75.8582 55.016 77.3822 57.9615C78.9094 60.9131 81.1176 62.956 83.5891 64.3586C87.8349 66.7681 92.8705 67.2923 96.6438 67.3891L103.561 77.6584C106.231 81.6218 104.953 87.02 100.79 89.3656L41.1699 122.954C36.8929 125.364 31.4776 123.472 30.3306 118.699C27.9031 108.596 27.0417 94.8344 34.1637 85.6349C34.4877 85.2164 34.8012 84.7608 35.056 84.2968C40.0619 75.181 43.9257 68.6747 46.9028 64.0371C50.437 58.5318 47.805 52.6833 41.5028 50.9281ZM58.5206 23.8909C59.4738 24.4985 61.1086 23.6389 62.1721 21.9708C63.2355 20.3027 63.3249 18.4578 62.3717 17.8501C61.4185 17.2424 59.7837 18.1021 58.7202 19.7702C57.6568 21.4383 57.5674 23.2832 58.5206 23.8909Z" fill="#0066FF"/>
<path d="M149.165 90.5V38.1364H169.21C172.994 38.1364 176.139 38.733 178.645 39.9261C181.168 41.1023 183.051 42.7131 184.295 44.7585C185.557 46.804 186.188 49.1222 186.188 51.7131C186.188 53.8438 185.778 55.6676 184.96 57.1847C184.142 58.6847 183.043 59.9034 181.662 60.8409C180.281 61.7784 178.739 62.4517 177.034 62.8608V63.3722C178.892 63.4744 180.673 64.0455 182.378 65.0852C184.099 66.108 185.506 67.5568 186.597 69.4318C187.688 71.3068 188.233 73.5739 188.233 76.233C188.233 78.9432 187.577 81.3807 186.264 83.5455C184.952 85.6932 182.974 87.3892 180.332 88.6335C177.69 89.8778 174.366 90.5 170.361 90.5H149.165ZM158.651 82.5739H168.852C172.295 82.5739 174.776 81.9176 176.293 80.6051C177.827 79.2756 178.594 77.571 178.594 75.4915C178.594 73.9403 178.21 72.5426 177.443 71.2983C176.676 70.0369 175.585 69.0483 174.17 68.3324C172.756 67.5994 171.068 67.233 169.108 67.233H158.651V82.5739ZM158.651 60.4062H168.034C169.67 60.4062 171.145 60.108 172.457 59.5114C173.77 58.8977 174.801 58.0369 175.551 56.929C176.318 55.804 176.702 54.4744 176.702 52.9403C176.702 50.9119 175.986 49.2415 174.554 47.929C173.139 46.6165 171.034 45.9602 168.239 45.9602H158.651V60.4062ZM207.377 91.2926C204.888 91.2926 202.647 90.8494 200.653 89.9631C198.675 89.0597 197.107 87.7301 195.948 85.9744C194.806 84.2187 194.235 82.054 194.235 79.4801C194.235 77.2642 194.644 75.4318 195.462 73.983C196.281 72.5341 197.397 71.375 198.812 70.5057C200.227 69.6364 201.82 68.9801 203.593 68.5369C205.383 68.0767 207.232 67.7443 209.141 67.5398C211.442 67.3011 213.309 67.0881 214.741 66.9006C216.173 66.696 217.212 66.3892 217.86 65.9801C218.525 65.554 218.857 64.8977 218.857 64.0114V63.858C218.857 61.9318 218.286 60.4403 217.144 59.3835C216.002 58.3267 214.357 57.7983 212.21 57.7983C209.942 57.7983 208.144 58.2926 206.815 59.2812C205.502 60.2699 204.616 61.4375 204.156 62.7841L195.513 61.5568C196.195 59.1705 197.32 57.1761 198.888 55.5739C200.457 53.9545 202.374 52.7443 204.641 51.9432C206.908 51.125 209.414 50.7159 212.158 50.7159C214.05 50.7159 215.934 50.9375 217.809 51.3807C219.684 51.8239 221.397 52.5568 222.948 53.5795C224.499 54.5852 225.744 55.9574 226.681 57.696C227.636 59.4347 228.113 61.608 228.113 64.2159V90.5H219.215V85.1051H218.908C218.346 86.196 217.553 87.2187 216.531 88.1733C215.525 89.1108 214.255 89.8693 212.721 90.4489C211.204 91.0114 209.423 91.2926 207.377 91.2926ZM209.781 84.4915C211.638 84.4915 213.249 84.125 214.613 83.392C215.977 82.642 217.025 81.6534 217.758 80.4261C218.508 79.1989 218.883 77.8608 218.883 76.4119V71.7841C218.593 72.0227 218.099 72.2443 217.4 72.4489C216.718 72.6534 215.951 72.8324 215.099 72.9858C214.246 73.1392 213.403 73.2756 212.567 73.3949C211.732 73.5142 211.008 73.6165 210.394 73.7017C209.013 73.8892 207.778 74.196 206.687 74.6222C205.596 75.0483 204.735 75.6449 204.104 76.4119C203.474 77.1619 203.158 78.1335 203.158 79.3267C203.158 81.0312 203.781 82.3182 205.025 83.1875C206.269 84.0568 207.854 84.4915 209.781 84.4915ZM237.42 90.5V51.2273H246.394V57.7727H246.803C247.519 55.5057 248.746 53.7585 250.485 52.5312C252.241 51.2869 254.244 50.6648 256.494 50.6648C257.005 50.6648 257.576 50.6903 258.207 50.7415C258.854 50.7756 259.391 50.8352 259.817 50.9205V59.4347C259.425 59.2983 258.803 59.179 257.951 59.0767C257.116 58.9574 256.306 58.8977 255.522 58.8977C253.835 58.8977 252.317 59.2642 250.971 59.9972C249.641 60.7131 248.593 61.7102 247.826 62.9886C247.059 64.267 246.675 65.7415 246.675 67.4119V90.5H237.42ZM274.404 78.1761L274.379 67.0028H275.862L289.975 51.2273H300.79L283.43 70.5568H281.512L274.404 78.1761ZM265.967 90.5V38.1364H275.222V90.5H265.967ZM290.614 90.5L277.83 72.6278L284.069 66.108L301.685 90.5H290.614ZM316.214 38.1364V90.5H306.959V38.1364H316.214ZM331.485 105.227C330.224 105.227 329.056 105.125 327.982 104.92C326.925 104.733 326.082 104.511 325.451 104.256L327.599 97.0455C328.945 97.4375 330.147 97.625 331.204 97.608C332.261 97.5909 333.19 97.2585 333.991 96.6108C334.809 95.9801 335.499 94.9233 336.062 93.4403L336.854 91.3182L322.613 51.2273H332.431L341.482 80.8864H341.891L350.968 51.2273H360.812L345.087 95.2557C344.354 97.3352 343.383 99.1165 342.173 100.599C340.962 102.099 339.479 103.241 337.724 104.026C335.985 104.827 333.906 105.227 331.485 105.227Z" fill="black"/>
</svg>
