<svg width="463" height="128" viewBox="0 0 463 128" fill="none" xmlns="http://www.w3.org/2000/svg">
<path fill-rule="evenodd" clip-rule="evenodd" d="M41.5028 50.9281C23.7558 45.9855 19.8201 32.0941 20.5926 21.1817C20.89 16.9802 25.0276 14.4733 29.1686 15.2438L45.6951 18.3189C50.1478 19.1474 54.3331 15.9825 57.1298 12.42C70.2933 -4.34823 114.174 0.457639 106.633 58.9568C106.27 61.7713 104.375 64.2689 101.599 64.8559C100.217 65.148 98.7611 65.3345 97.305 65.3549C96.7885 65.3472 96.2492 65.3323 95.6928 65.3063C95.5319 65.2939 95.3713 65.2793 95.2111 65.2622L95.2244 65.2819C91.8502 65.0883 87.9183 64.4619 84.5994 62.5785C82.4272 61.3458 80.5225 59.5766 79.2001 57.0209C77.8747 54.4592 77.1017 51.0438 77.3004 46.4732C77.325 45.9085 76.8871 45.4309 76.3224 45.4063C75.7577 45.3818 75.2801 45.8196 75.2555 46.3843C75.0449 51.2291 75.8582 55.016 77.3823 57.9615C78.9095 60.9131 81.1176 62.956 83.5892 64.3586C87.8349 66.7681 92.8705 67.2923 96.6438 67.3891L103.561 77.6583C106.231 81.6218 104.953 87.0199 100.79 89.3656L41.1699 122.954C36.8929 125.364 31.4776 123.472 30.3306 118.699C27.9031 108.596 27.0417 94.8344 34.1637 85.6349C34.4877 85.2164 34.8012 84.7608 35.056 84.2968C40.0619 75.181 43.9257 68.6747 46.9028 64.0371C50.437 58.5318 47.805 52.6833 41.5028 50.9281ZM58.5206 23.8909C59.4738 24.4985 61.1086 23.6389 62.1721 21.9708C63.2355 20.3027 63.3249 18.4578 62.3717 17.8501C61.4185 17.2424 59.7837 18.1021 58.7202 19.7702C57.6568 21.4383 57.5674 23.2832 58.5206 23.8909Z" fill="#0066FF"/>
<path d="M184.244 54.858C183.818 53.4773 183.23 52.2415 182.48 51.1506C181.747 50.0426 180.861 49.0966 179.821 48.3125C178.798 47.5284 177.622 46.9403 176.293 46.5483C174.963 46.1392 173.514 45.9347 171.946 45.9347C169.134 45.9347 166.628 46.642 164.429 48.0568C162.23 49.4716 160.5 51.5511 159.239 54.2955C157.994 57.0227 157.372 60.3466 157.372 64.267C157.372 68.2216 157.994 71.571 159.239 74.3153C160.483 77.0597 162.213 79.1477 164.429 80.5795C166.645 81.9943 169.219 82.7017 172.151 82.7017C174.81 82.7017 177.111 82.1903 179.054 81.1676C181.014 80.1449 182.523 78.696 183.58 76.821C184.636 74.929 185.165 72.7131 185.165 70.1733L187.312 70.5057H173.097V63.0909H194.344V69.3807C194.344 73.8636 193.389 77.7415 191.48 81.0142C189.571 84.2869 186.946 86.8097 183.605 88.5824C180.264 90.3381 176.429 91.2159 172.099 91.2159C167.276 91.2159 163.04 90.1335 159.392 87.9688C155.761 85.7869 152.923 82.6932 150.878 78.6875C148.849 74.6648 147.835 69.892 147.835 64.3693C147.835 60.142 148.432 56.3665 149.625 53.0426C150.835 49.7188 152.523 46.8977 154.688 44.5795C156.852 42.2443 159.392 40.4716 162.307 39.2614C165.222 38.0341 168.392 37.4205 171.818 37.4205C174.716 37.4205 177.418 37.8466 179.923 38.6989C182.429 39.5341 184.653 40.7273 186.597 42.2784C188.557 43.8295 190.168 45.6705 191.429 47.8011C192.69 49.9318 193.517 52.2841 193.909 54.858H184.244ZM220.238 91.267C216.403 91.267 213.079 90.4233 210.266 88.7358C207.454 87.0483 205.272 84.6875 203.721 81.6534C202.187 78.6193 201.42 75.0739 201.42 71.017C201.42 66.9602 202.187 63.4062 203.721 60.3551C205.272 57.304 207.454 54.9347 210.266 53.2472C213.079 51.5597 216.403 50.7159 220.238 50.7159C224.073 50.7159 227.397 51.5597 230.21 53.2472C233.022 54.9347 235.195 57.304 236.729 60.3551C238.281 63.4062 239.056 66.9602 239.056 71.017C239.056 75.0739 238.281 78.6193 236.729 81.6534C235.195 84.6875 233.022 87.0483 230.21 88.7358C227.397 90.4233 224.073 91.267 220.238 91.267ZM220.289 83.8523C222.369 83.8523 224.107 83.2812 225.505 82.1392C226.903 80.9801 227.942 79.429 228.624 77.4858C229.323 75.5426 229.673 73.3778 229.673 70.9915C229.673 68.5881 229.323 66.4148 228.624 64.4716C227.942 62.5114 226.903 60.9517 225.505 59.7926C224.107 58.6335 222.369 58.054 220.289 58.054C218.158 58.054 216.386 58.6335 214.971 59.7926C213.573 60.9517 212.525 62.5114 211.826 64.4716C211.144 66.4148 210.803 68.5881 210.803 70.9915C210.803 73.3778 211.144 75.5426 211.826 77.4858C212.525 79.429 213.573 80.9801 214.971 82.1392C216.386 83.2812 218.158 83.8523 220.289 83.8523ZM264.043 91.267C260.207 91.267 256.884 90.4233 254.071 88.7358C251.259 87.0483 249.077 84.6875 247.526 81.6534C245.991 78.6193 245.224 75.0739 245.224 71.017C245.224 66.9602 245.991 63.4062 247.526 60.3551C249.077 57.304 251.259 54.9347 254.071 53.2472C256.884 51.5597 260.207 50.7159 264.043 50.7159C267.878 50.7159 271.202 51.5597 274.014 53.2472C276.827 54.9347 279 57.304 280.534 60.3551C282.085 63.4062 282.861 66.9602 282.861 71.017C282.861 75.0739 282.085 78.6193 280.534 81.6534C279 84.6875 276.827 87.0483 274.014 88.7358C271.202 90.4233 267.878 91.267 264.043 91.267ZM264.094 83.8523C266.173 83.8523 267.912 83.2812 269.31 82.1392C270.707 80.9801 271.747 79.429 272.429 77.4858C273.128 75.5426 273.477 73.3778 273.477 70.9915C273.477 68.5881 273.128 66.4148 272.429 64.4716C271.747 62.5114 270.707 60.9517 269.31 59.7926C267.912 58.6335 266.173 58.054 264.094 58.054C261.963 58.054 260.19 58.6335 258.776 59.7926C257.378 60.9517 256.33 62.5114 255.631 64.4716C254.949 66.4148 254.608 68.5881 254.608 70.9915C254.608 73.3778 254.949 75.5426 255.631 77.4858C256.33 79.429 257.378 80.9801 258.776 82.1392C260.19 83.2812 261.963 83.8523 264.094 83.8523ZM305.29 91.1903C302.205 91.1903 299.444 90.3977 297.006 88.8125C294.569 87.2273 292.643 84.9261 291.228 81.9091C289.813 78.892 289.106 75.2273 289.106 70.9148C289.106 66.5511 289.822 62.8693 291.254 59.8693C292.702 56.8523 294.654 54.5767 297.109 53.0426C299.563 51.4915 302.299 50.7159 305.316 50.7159C307.617 50.7159 309.509 51.108 310.992 51.892C312.475 52.6591 313.651 53.5881 314.521 54.679C315.39 55.7528 316.063 56.767 316.54 57.7216H316.924V38.1364H326.205V90.5H317.103V84.3125H316.54C316.063 85.267 315.373 86.2812 314.469 87.3551C313.566 88.4119 312.373 89.3153 310.89 90.0653C309.407 90.8153 307.54 91.1903 305.29 91.1903ZM307.873 83.5966C309.833 83.5966 311.504 83.0682 312.884 82.0114C314.265 80.9375 315.313 79.446 316.029 77.5369C316.745 75.6278 317.103 73.4034 317.103 70.8636C317.103 68.3239 316.745 66.1165 316.029 64.2415C315.33 62.3665 314.29 60.9091 312.91 59.8693C311.546 58.8295 309.867 58.3097 307.873 58.3097C305.81 58.3097 304.089 58.8466 302.708 59.9205C301.327 60.9943 300.288 62.4773 299.589 64.3693C298.89 66.2614 298.54 68.4261 298.54 70.8636C298.54 73.3182 298.89 75.5085 299.589 77.4347C300.305 79.3437 301.353 80.8523 302.734 81.9602C304.131 83.0511 305.844 83.5966 307.873 83.5966ZM336.477 90.5V38.1364H356.523C360.307 38.1364 363.452 38.733 365.957 39.9261C368.48 41.1023 370.364 42.7131 371.608 44.7585C372.869 46.804 373.5 49.1222 373.5 51.7131C373.5 53.8438 373.091 55.6676 372.273 57.1847C371.455 58.6847 370.355 59.9034 368.974 60.8409C367.594 61.7784 366.051 62.4517 364.347 62.8608V63.3722C366.205 63.4744 367.986 64.0455 369.69 65.0852C371.412 66.108 372.818 67.5568 373.909 69.4318C375 71.3068 375.545 73.5739 375.545 76.233C375.545 78.9432 374.889 81.3807 373.577 83.5455C372.264 85.6932 370.287 87.3892 367.645 88.6335C365.003 89.8778 361.679 90.5 357.673 90.5H336.477ZM345.963 82.5739H356.165C359.608 82.5739 362.088 81.9176 363.605 80.6051C365.139 79.2756 365.906 77.571 365.906 75.4915C365.906 73.9403 365.523 72.5426 364.756 71.2983C363.989 70.0369 362.898 69.0483 361.483 68.3324C360.068 67.5994 358.381 67.233 356.42 67.233H345.963V82.5739ZM345.963 60.4062H355.347C356.983 60.4062 358.457 60.108 359.77 59.5114C361.082 58.8977 362.114 58.0369 362.864 56.929C363.631 55.804 364.014 54.4744 364.014 52.9403C364.014 50.9119 363.298 49.2415 361.866 47.929C360.452 46.6165 358.347 45.9602 355.551 45.9602H345.963V60.4062ZM400.519 91.267C396.684 91.267 393.36 90.4233 390.548 88.7358C387.735 87.0483 385.553 84.6875 384.002 81.6534C382.468 78.6193 381.701 75.0739 381.701 71.017C381.701 66.9602 382.468 63.4062 384.002 60.3551C385.553 57.304 387.735 54.9347 390.548 53.2472C393.36 51.5597 396.684 50.7159 400.519 50.7159C404.354 50.7159 407.678 51.5597 410.491 53.2472C413.303 54.9347 415.477 57.304 417.011 60.3551C418.562 63.4062 419.337 66.9602 419.337 71.017C419.337 75.0739 418.562 78.6193 417.011 81.6534C415.477 84.6875 413.303 87.0483 410.491 88.7358C407.678 90.4233 404.354 91.267 400.519 91.267ZM400.57 83.8523C402.65 83.8523 404.388 83.2812 405.786 82.1392C407.184 80.9801 408.224 79.429 408.906 77.4858C409.604 75.5426 409.954 73.3778 409.954 70.9915C409.954 68.5881 409.604 66.4148 408.906 64.4716C408.224 62.5114 407.184 60.9517 405.786 59.7926C404.388 58.6335 402.65 58.054 400.57 58.054C398.44 58.054 396.667 58.6335 395.252 59.7926C393.854 60.9517 392.806 62.5114 392.107 64.4716C391.425 66.4148 391.085 68.5881 391.085 70.9915C391.085 73.3778 391.425 75.5426 392.107 77.4858C392.806 79.429 393.854 80.9801 395.252 82.1392C396.667 83.2812 398.44 83.8523 400.57 83.8523ZM431.61 105.227C430.349 105.227 429.181 105.125 428.107 104.92C427.05 104.733 426.207 104.511 425.576 104.256L427.724 97.0455C429.07 97.4375 430.272 97.625 431.329 97.608C432.386 97.5909 433.315 97.2585 434.116 96.6108C434.934 95.9801 435.624 94.9233 436.187 93.4403L436.979 91.3182L422.738 51.2273H432.556L441.607 80.8864H442.016L451.093 51.2273H460.937L445.212 95.2557C444.479 97.3352 443.508 99.1165 442.298 100.599C441.087 102.099 439.604 103.241 437.849 104.026C436.11 104.827 434.031 105.227 431.61 105.227Z" fill="black"/>
</svg>
