<svg width="129" height="129" viewBox="0 0 129 129" fill="none" xmlns="http://www.w3.org/2000/svg">
<path fill-rule="evenodd" clip-rule="evenodd" d="M41.9142 51.6071C24.1672 46.6645 20.2315 32.773 21.004 21.8607C21.3014 17.6592 25.439 15.1523 29.58 15.9228L46.1065 18.9978C50.5592 19.8264 54.7445 16.6615 57.5411 13.0989C70.7047 -3.66927 114.586 1.13659 107.044 59.6357C106.681 62.4503 104.787 64.9479 102.01 65.5348C100.629 65.8269 99.1724 66.0134 97.7163 66.0338C97.1999 66.0261 96.6606 66.0112 96.1042 65.9852C95.9432 65.9729 95.7826 65.9582 95.6224 65.9412L95.6357 65.9609C92.2616 65.7673 88.3296 65.1409 85.0107 63.2574C82.8386 62.0248 80.9339 60.2555 79.6115 57.6998C78.286 55.1381 77.513 51.7228 77.7118 47.1522C77.7363 46.5875 77.2984 46.1098 76.7338 46.0853C76.1691 46.0607 75.6914 46.4986 75.6669 47.0633C75.4562 51.9081 76.2695 55.6949 77.7936 58.6405C79.3208 61.592 81.5289 63.635 84.0005 65.0376C88.2463 67.447 93.2818 67.9713 97.0551 68.068L103.973 78.3373C106.642 82.3008 105.364 87.6989 101.201 90.0446L41.5813 123.633C37.3043 126.043 31.889 124.151 30.742 119.378C28.3144 109.275 27.453 95.5134 34.575 86.3139C34.8991 85.8953 35.2125 85.4398 35.4673 84.9758C40.4733 75.86 44.3371 69.3537 47.3142 64.7161C50.8483 59.2108 48.2163 53.3622 41.9142 51.6071ZM58.932 24.5698C59.8852 25.1775 61.52 24.3179 62.5834 22.6497C63.6469 20.9816 63.7362 19.1367 62.783 18.5291C61.8298 17.9214 60.195 18.781 59.1316 20.4491C58.0681 22.1173 57.9788 23.9621 58.932 24.5698Z" fill="#0066FF"/>
</svg>
